<?xml version="1.0" encoding="UTF-8"?>
<svg id="Livello_1" data-name="Livello 1" xmlns="http://www.w3.org/2000/svg" viewBox="0 0 496.13 210">
  <defs>
    <style>
      .cls-1 {
        fill: #ea0816;
      }
    </style>
  </defs>
  <path class="cls-1" d="M8.54,30c11.07-.03,22.13-.05,33.2-.07,11.33-.02,19.59,2.48,24.78,7.37,5.19,4.9,7.77,12.39,7.75,22.57,0,1.74,0,3.48-.01,5.22-.02,6.71-1.2,12.22-3.53,16.57-2.34,4.36-5.91,7.63-10.71,9.82,0,.13,0,.25,0,.38,10.91,2.85,16.35,11.54,16.32,26.14,0,3.72-.02,7.44-.03,11.16-.02,10.04-2.87,17.97-8.54,23.97-5.67,6-13.95,9.79-24.83,11.4-11.48,1.69-22.95,3.52-34.4,5.49V30Zm30.52,54.96c4.39-.27,7.69-1.56,9.89-3.85,2.2-2.29,3.31-5.96,3.31-11.04,0-2.48,0-4.95,.01-7.43,0-4.82-.88-8.28-2.68-10.4-1.79-2.12-4.63-3.14-8.49-3.06-3.53,.08-7.06,.16-10.59,.25-.01,12.02-.02,24.04-.04,36.07,2.86-.19,5.72-.37,8.58-.54Zm3.9,60.32c3.85-.49,6.71-1.82,8.57-4.01,1.86-2.19,2.8-5.68,2.81-10.49,0-3.86,.01-7.73,.02-11.59,.01-6.08-1.08-10.19-3.27-12.36-2.19-2.17-5.82-3.07-10.87-2.65-3.26,.27-6.52,.55-9.77,.83-.01,13.97-.03,27.94-.04,41.91,4.18-.56,8.36-1.11,12.55-1.63Z"/>
  <path class="cls-1" d="M96.02,151.12c-5.72-5-8.56-12.7-8.53-23.01,.06-22.58,.11-45.15,.17-67.73,.03-10.31,2.91-18.35,8.66-23.99,5.75-5.64,14.02-8.41,24.82-8.4,10.8,0,19.06,2.74,24.78,8.11,5.72,5.38,8.57,12.94,8.55,22.76-.05,21.51-.1,43.03-.16,64.54-.02,9.82-2.92,17.58-8.67,23.39-5.76,5.81-14.04,9.19-24.85,10.2-10.81,1.01-19.06-.86-24.77-5.87Zm36.26-25.18c.06-22.63,.12-45.27,.18-67.9,.02-8.17-3.77-12.21-11.37-12.12-7.6,.09-11.41,4.3-11.43,12.62-.06,23.01-.12,46.02-.19,69.03-.02,8.32,3.76,12.14,11.37,11.51,7.6-.61,11.42-4.97,11.44-13.14Z"/>
  <path class="cls-1" d="M176.1,144.95c-5.74-5.03-8.59-12.43-8.57-22.19,.05-21.37,.1-42.74,.14-64.11,.02-9.76,2.91-17.34,8.65-22.68,5.74-5.34,14.02-7.98,24.82-7.98,10.8,0,19.06,2.63,24.79,7.87,5.73,5.24,8.6,12.63,8.59,22.2-.01,20.96-.02,41.91-.03,62.87,0,9.57-2.89,16.99-8.64,22.33-5.76,5.35-14.06,8.16-24.89,8.55-10.84,.4-19.12-1.83-24.86-6.86Zm36.33-22.48c.03-21.83,.05-43.66,.08-65.5,0-7.88-3.79-11.81-11.39-11.78-7.6,.04-11.41,4.03-11.43,11.97-.04,21.98-.08,43.96-.12,65.94-.01,7.95,3.79,11.76,11.41,11.51,7.62-.24,11.44-4.26,11.45-12.15Z"/>
  <path class="cls-1" d="M249.34,29.7c7.33,0,14.67,0,22,0,.02,34.17,.04,68.34,.06,102.51,12.1,.14,24.21,.41,36.31,.81,0,5.74,.02,11.48,.03,17.22-19.46-.75-38.93-1.11-58.4-1.06,0-39.82,0-79.65,.01-119.47Z"/>
  <path class="cls-1" d="M318.14,29.73c19.4,.01,38.8,.03,58.2,.05,.02,5.94,.03,11.88,.05,17.83-12.07-.16-24.14-.3-36.21-.42,.03,11.34,.05,22.68,.08,34.02,9.48,.25,18.95,.54,28.42,.87,.02,5.91,.03,11.82,.05,17.73-9.47-.44-18.95-.83-28.43-1.16,.04,17.74,.08,35.48,.12,53.22-7.35-.45-14.7-.85-22.06-1.18-.07-40.32-.15-80.64-.22-120.97Z"/>
  <path class="cls-1" d="M386.94,29.79c7.33,0,14.67,.02,22,.03,.11,42.65,.22,85.29,.34,127.94-7.33-.8-14.66-1.55-21.99-2.24-.11-41.91-.23-83.82-.34-125.73Z"/>
  <path class="cls-1" d="M444.86,94.5c-8.1-22.08-16.21-43.6-24.33-64.66,7.73,.01,15.47,.03,23.2,.04,4.96,14.23,9.92,28.67,14.87,43.34,.13,0,.27,.01,.4,.02,5.04-14.2,10.08-28.62,15.13-43.3,6.93,.02,13.87,.03,20.8,.05-8.06,22.75-16.1,44.84-24.12,66.36,8.47,23.82,16.92,48.33,25.32,73.64-7.68-1.32-15.36-2.58-23.05-3.77-5.32-16.66-10.66-33-16-49.07-.13-.01-.27-.03-.4-.04-5.43,15.04-10.85,29.83-16.27,44.41-6.91-.91-13.83-1.77-20.75-2.59,8.4-21.02,16.8-42.46,25.2-64.44Z"/>
</svg>