<?xml version="1.0" encoding="utf-8"?>
<!-- Generator: Adobe Illustrator 27.0.0, SVG Export Plug-In . SVG Version: 6.00 Build 0)  -->
<svg version="1.1" id="Livello_1" xmlns="http://www.w3.org/2000/svg" xmlns:xlink="http://www.w3.org/1999/xlink" x="0px" y="0px"
	 viewBox="0 0 496.1 210" style="enable-background:new 0 0 496.1 210;" xml:space="preserve">
<style type="text/css">
	.st0{fill:#EA0816;}
</style>
<g>
	<g>
		<path class="st0" d="M46.8,54.8c7.8,0,15.7,0,23.5-0.1c8,0,13.9,1.8,17.6,5.2c3.7,3.5,5.5,8.8,5.5,16c0,1.2,0,2.5,0,3.7
			c0,4.7-0.8,8.6-2.5,11.7c-1.7,3.1-4.2,5.4-7.6,7c0,0.1,0,0.2,0,0.3c7.7,2,11.6,8.1,11.6,18.5c0,2.6,0,5.3,0,7.9
			c0,7.1-2,12.7-6.1,17c-4,4.3-9.9,7-17.6,8.1c-8.1,1.2-16.3,2.5-24.4,3.9C46.8,120.9,46.8,87.9,46.8,54.8z M68.4,93.7
			c3.1-0.2,5.4-1.1,7-2.7c1.6-1.6,2.3-4.2,2.3-7.8c0-1.8,0-3.5,0-5.3c0-3.4-0.6-5.9-1.9-7.4c-1.3-1.5-3.3-2.2-6-2.2
			c-2.5,0.1-5,0.1-7.5,0.2c0,8.5,0,17,0,25.6C64.3,94,66.4,93.9,68.4,93.7z M71.2,136.5c2.7-0.4,4.8-1.3,6.1-2.9c1.3-1.6,2-4,2-7.4
			c0-2.7,0-5.5,0-8.2c0-4.3-0.8-7.2-2.3-8.8c-1.6-1.5-4.1-2.2-7.7-1.9c-2.3,0.2-4.6,0.4-6.9,0.6c0,9.9,0,19.8,0,29.7
			C65.2,137.2,68.2,136.9,71.2,136.5z"/>
		<path class="st0" d="M108.7,140.4c-4-3.5-6.1-8.9-6-16.2c0-16,0.1-31.9,0.1-47.9c0-7.3,2.1-13,6.1-17c4.1-4,9.9-5.9,17.6-5.9
			c7.7,0,13.5,1.9,17.6,5.7c4.1,3.8,6.1,9.1,6,16c0,15.1-0.1,30.3-0.1,45.4c0,6.9-2.1,12.4-6.2,16.5c-4.1,4.1-9.9,6.6-17.6,7.4
			C118.6,145.2,112.8,143.9,108.7,140.4z M134.4,122.4c0.1-16,0.1-31.9,0.2-47.9c0-5.8-2.7-8.6-8.1-8.5c-5.4,0.1-8.1,3-8.1,8.9
			c0,16.3-0.1,32.5-0.1,48.8c0,5.9,2.7,8.6,8.1,8.1C131.7,131.3,134.4,128.2,134.4,122.4z"/>
		<path class="st0" d="M165.5,135.4c-4.1-3.5-6.1-8.6-6.1-15.5c0-15,0.1-30,0.1-45c0-6.9,2.1-12.2,6.1-15.9
			c4.1-3.8,9.9-5.6,17.6-5.6c7.7,0,13.5,1.8,17.6,5.5c4.1,3.6,6.1,8.8,6.1,15.4c0,14.6,0,29.2-0.1,43.8c0,6.7-2.1,11.9-6.1,15.7
			c-4.1,3.8-10,5.9-17.6,6.3C175.4,140.4,169.5,138.9,165.5,135.4z M191.2,119.3c0-15.2,0.1-30.5,0.1-45.7c0-5.5-2.7-8.2-8.1-8.2
			c-5.4,0-8.1,2.8-8.1,8.4c0,15.4-0.1,30.8-0.1,46.2c0,5.6,2.7,8.2,8.1,7.9C188.5,127.7,191.2,124.8,191.2,119.3z"/>
		<path class="st0" d="M217.5,54.5c5.2,0,10.4,0,15.6,0c0,23.6,0,47.3,0,70.9c8.6-0.1,17.2-0.1,25.7,0c0,3.9,0,7.9,0,11.8
			c-13.8-0.2-27.6-0.1-41.4,0.2C217.4,109.8,217.4,82.2,217.5,54.5z"/>
		<path class="st0" d="M266.2,54.5c13.8,0,27.5,0,41.3,0c0,4,0,8,0,12.1c-8.6-0.1-17.1-0.1-25.7-0.2c0,7.7,0,15.5,0,23.2
			c6.7,0.1,13.4,0.2,20.2,0.4c0,4,0,8,0,12c-6.7-0.2-13.4-0.4-20.2-0.5c0,12.1,0,24.2,0.1,36.3c-5.2-0.2-10.4-0.3-15.6-0.4
			C266.3,109.8,266.3,82.2,266.2,54.5z"/>
		<path class="st0" d="M315,54.6c5.2,0,10.4,0,15.6,0c0.1,24.5,0.1,49.1,0.2,73.6c8.6,0.6,17.1,1.2,25.7,1.9c0,4.2,0,8.4,0,12.6
			c-13.8-1.3-27.5-2.4-41.3-3.3C315.2,111.1,315.1,82.8,315,54.6z"/>
		<path class="st0" d="M363.8,54.6c5.2,0,10.4,0,15.6,0c0.1,30.2,0.2,60.3,0.3,90.5c-5.2-0.6-10.4-1.2-15.6-1.7
			C364,113.8,363.9,84.2,363.8,54.6z"/>
		<path class="st0" d="M404.8,100.5c-5.7-15.7-11.5-30.9-17.3-45.8c5.5,0,11,0,16.4,0c3.5,10.1,7,20.3,10.5,30.7c0.1,0,0.2,0,0.3,0
			c3.6-10.1,7.1-20.3,10.7-30.7c4.9,0,9.8,0,14.7,0c-5.7,16.1-11.4,31.8-17.1,47c6,16.9,12,34.3,17.9,52.2
			c-5.4-0.9-10.9-1.8-16.3-2.7c-3.8-11.8-7.6-23.4-11.3-34.8c-0.1,0-0.2,0-0.3,0c-3.8,10.6-7.7,21.1-11.5,31.4
			c-4.9-0.7-9.8-1.3-14.7-1.9C392.9,131.2,398.9,116,404.8,100.5z"/>
	</g>
</g>
</svg>
